<svg version="1.1" id="Layer_1" xmlns="http://www.w3.org/2000/svg" xmlns:xlink="http://www.w3.org/1999/xlink" x="0px" y="0px"
     width="100%" viewBox="0 -30 300 300" enable-background="new 0 0 300 250" xml:space="preserve">

    <path fill="#z42424" opacity="1.000000" stroke="none"
          d="
M111.221741,152.932678
	C105.713028,155.599350 100.486984,157.262177 94.606377,157.100693
	C83.502068,156.795761 75.370056,149.271072 75.266014,138.103592
	C75.238350,135.133530 74.630913,134.622925 71.785011,134.836777
	C61.952557,135.575653 52.188000,135.787308 42.960026,131.095200
	C33.530617,126.300659 29.154686,119.712784 29.980700,110.726540
	C30.544323,104.594856 34.022518,100.454475 39.622803,97.189308
	C33.082611,93.418022 27.488552,89.323845 22.681629,84.173820
	C17.574299,78.701965 14.038505,72.428413 11.862983,65.304985
	C10.325639,60.271172 10.791539,55.457455 13.030332,50.746906
	C19.092808,37.991096 29.640921,35.550255 40.563900,44.465088
	C43.141457,46.568779 45.651169,48.795425 47.943565,51.202217
	C62.955219,66.962982 81.516869,75.841316 102.655838,80.022179
	C110.325294,81.539047 117.847038,83.680962 123.904694,89.206924
	C129.534317,94.342445 133.150787,100.482826 134.263809,108.464531
	C132.078323,111.077515 129.352356,110.395302 126.300591,110.056709
	C124.348022,109.353233 123.590042,108.041069 123.076637,106.619904
	C119.753082,97.419800 112.304497,93.348877 103.517418,91.306595
	C93.601364,89.001930 83.766289,86.616821 74.421944,82.400574
	C62.766655,77.141602 52.087078,70.524223 43.045265,61.404186
	C39.995552,58.328091 37.008320,55.183685 33.404385,52.716106
	C28.096567,49.081890 23.184320,51.316883 22.422092,57.811237
	C22.068340,60.825306 22.472746,63.734161 23.737450,66.589943
	C28.305140,76.904083 36.190113,83.765770 46.271305,88.236183
	C54.396370,91.839172 63.077110,93.568085 71.782875,95.146004
	C78.284821,96.324478 80.604782,98.463905 79.955299,102.410553
	C79.328522,106.219238 75.902039,107.919395 69.839272,107.088989
	C64.732597,106.389549 59.726795,105.003052 54.488255,105.278748
	C51.805164,105.419952 49.181694,105.717888 46.612610,106.497116
	C43.731659,107.370941 41.368488,108.870544 40.869831,112.080025
	C40.377922,115.246025 42.070675,117.546837 44.472618,119.288490
	C49.342266,122.819473 54.901550,124.503860 60.856091,124.647766
	C70.726440,124.886322 80.036720,122.785957 88.500793,117.477951
	C90.475754,116.239410 92.441544,114.964500 94.551819,113.966171
	C97.737930,112.458878 100.520851,113.012192 102.226501,116.205475
	C103.837891,119.222267 103.385933,122.070915 100.372925,124.078239
	C97.600212,125.925484 94.768417,127.686783 91.964134,129.487488
	C87.172325,132.564453 85.218697,137.640991 87.103874,141.816071
	C88.994301,146.002777 93.301537,147.323822 99.171387,146.069397
	C103.064316,145.237488 106.166031,142.035217 110.792923,142.753098
	C113.042107,146.117935 112.822258,149.343964 111.221741,152.932678
z"/>
    <path fill="#242424" opacity="1.000000" stroke="none"
          d="
M168.511169,108.313385
	C169.740723,96.409996 176.456238,88.732933 186.747833,83.942261
	C192.039795,81.478882 197.785141,80.386314 203.464401,79.130798
	C222.735703,74.870499 239.709152,66.364769 253.523407,51.991886
	C256.054657,49.358273 258.752106,46.844437 261.609375,44.572830
	C266.831421,40.421200 272.571045,36.813210 279.391296,40.252354
	C286.376282,43.774532 290.382050,49.901886 290.936859,57.772991
	C291.641113,67.764893 286.715881,75.683601 280.647583,82.967216
	C275.818817,88.763008 269.806976,93.205681 262.822723,97.026802
	C265.835266,99.422043 268.719360,101.238113 270.370880,104.385071
	C274.612823,112.468025 272.533997,121.663071 264.940338,127.505913
	C254.851517,135.268631 243.226395,136.169266 231.229401,134.630005
	C227.673645,134.173782 227.198471,134.930695 226.914307,138.423477
	C225.822098,151.848267 216.714798,159.802582 200.447235,156.581406
	C196.974274,155.893723 193.921768,154.177109 190.364532,152.899002
	C187.743927,149.706451 188.347809,146.223938 189.574127,142.380127
	C192.118958,140.627014 193.978928,142.157593 195.879089,143.026016
	C198.757202,144.341385 201.532364,145.906708 204.708618,146.425323
	C209.477463,147.203995 213.485184,145.369522 215.281723,141.622284
	C216.955811,138.130432 215.558731,133.569824 211.827454,130.574646
	C209.090302,128.377457 205.837158,126.957954 203.034409,124.854080
	C201.422684,123.644257 199.871872,122.356102 199.288986,120.314255
	C198.672104,118.153336 199.489609,116.405571 201.006149,114.898140
	C202.559830,113.353767 204.361343,112.800674 206.485641,113.511337
	C208.562454,114.206116 210.360855,115.427559 212.223862,116.529289
	C223.333496,123.099167 235.086197,126.472984 248.071976,123.755974
	C251.899673,122.955109 255.375641,121.301735 258.390900,118.911148
	C263.365173,114.967415 262.443298,109.041969 256.555756,106.798714
	C250.594711,104.527443 244.441315,104.985542 238.309845,105.996521
	C234.863907,106.564697 231.474899,107.539391 227.922058,107.196213
	C225.004990,106.914444 222.634735,105.761932 222.170700,102.638054
	C221.685654,99.372749 223.453125,97.243637 226.455627,96.155266
	C230.243881,94.782066 234.274506,94.521309 238.191620,93.744263
	C248.595459,91.680420 258.542816,88.679123 266.807556,81.534164
	C272.728668,76.415291 277.436188,70.560387 279.814331,62.978050
	C280.721588,60.085327 280.493622,57.425751 279.091339,54.780422
	C276.649231,50.173531 273.549408,49.289055 269.343872,52.290810
	C266.228516,54.514462 263.277435,56.964981 260.598969,59.731453
	C246.052811,74.755440 228.407852,84.245422 208.150040,89.083244
	C203.776306,90.127747 199.408234,91.196831 195.094666,92.494049
	C188.174957,94.575005 182.978134,98.622177 179.888275,105.236359
	C179.254990,106.591972 178.666992,107.997719 176.842606,108.899391
	C173.880035,109.516533 171.314987,109.722748 168.511169,108.313385
z"/>
    <path fill="#21211A" opacity="1.000000" stroke="none"
          d="
M191.141312,141.629532
	C189.036682,145.226517 190.442673,148.749054 189.996094,152.549500
	C190.009201,156.665939 189.839722,160.341476 190.072525,163.991364
	C190.376419,168.755478 189.664124,172.992020 185.347107,175.819382
	C183.987762,176.709656 184.109833,177.993073 184.005951,179.329468
	C183.406067,187.047791 178.205444,194.192612 172.296539,194.929443
	C163.309586,196.050110 158.231247,193.762283 153.643585,184.373138
	C152.849792,182.748550 152.418610,180.946808 151.553589,178.461716
	C146.629440,183.489807 141.903839,188.133591 137.416458,192.997131
	C135.874237,194.668640 134.282745,195.513077 132.207047,194.910553
	C129.797989,194.211288 130.638382,191.970184 130.417023,190.279053
	C130.331299,189.623962 130.413712,188.948166 130.399338,188.282242
	C130.334885,185.294815 131.178436,181.836792 129.948914,179.446350
	C128.590317,176.805008 124.795113,178.694641 122.112160,178.120834
	C115.925484,176.797623 111.165123,171.452835 110.990105,165.143402
	C110.888542,161.481827 110.945312,157.815826 110.908363,153.701630
	C110.853844,150.013550 111.458038,146.753845 110.249039,143.262726
	C109.128380,135.196289 109.103165,127.361244 109.953445,119.631859
	C110.794090,111.990059 117.332977,107.201752 124.433578,108.631340
	C127.641815,108.917488 130.497574,108.926865 133.830170,108.900101
	C135.782059,109.058167 137.160599,109.160965 138.555756,108.230019
	C147.663315,102.152779 156.707642,102.249290 165.614304,108.711266
	C166.372940,109.261673 167.103455,109.317879 168.007416,108.324287
	C170.860214,108.007912 173.522217,108.007782 176.632172,108.015884
	C178.764038,108.764061 180.634842,108.614746 182.372009,109.197144
	C187.897125,111.049438 191.178940,115.044701 191.335205,120.937149
	C191.514618,127.701805 191.583817,134.475174 191.141312,141.629532
z"/>
    <path fill="#2E3029" opacity="1.000000" stroke="none"
          d="
M150.124207,206.980347
	C149.647491,208.474289 149.341721,209.749832 149.189209,211.043442
	C148.143784,219.910233 145.095627,221.940308 136.603409,219.864197
	C132.448425,218.848450 128.050491,219.149994 123.993034,220.163162
	C117.492043,221.786499 114.030205,219.733444 113.461174,213.013092
	C113.391106,212.185562 113.747330,211.011719 113.318275,210.572479
	C108.687347,205.831665 113.000679,202.720795 115.262619,199.235077
	C117.723915,195.442184 121.090988,195.308334 123.269867,199.319397
	C124.536224,201.650635 125.517952,200.744141 127.430191,200.621460
	C133.368484,200.240463 139.373596,200.477982 145.321793,200.906036
	C147.371719,201.053558 148.142624,203.540100 149.640228,205.092606
	C150.519196,205.525558 150.592010,206.117264 150.124207,206.980347
z"/>
    <path fill="#2D2F29" opacity="1.000000" stroke="none"
          d="
M150.094604,207.600739
	C149.924469,206.655121 149.966583,206.119843 150.008057,205.304306
	C151.189911,202.291779 153.633255,200.500854 155.294617,198.085724
	C157.308151,195.158630 160.453339,195.747803 162.087296,198.910065
	C163.270157,201.199341 164.108551,200.896545 166.490814,200.655487
	C172.395081,200.058075 178.448730,200.418777 184.388779,200.971100
	C186.503799,201.167755 187.753204,203.606445 188.049316,205.887146
	C188.262070,207.525635 188.298828,209.218384 188.160965,210.865723
	C187.430206,219.596573 184.094833,221.977692 175.746216,219.880814
	C171.525864,218.820786 167.159470,219.179031 163.126480,220.143066
	C156.338394,221.765686 152.988449,219.810104 152.494385,212.621872
	C152.361649,210.690643 152.261780,208.973236 150.094604,207.600739
z"/>
    <path fill="#FCFCFC" opacity="1.000000" stroke="none"
          d="
M124.811050,108.548088
	C115.852226,109.451485 111.304558,114.238464 111.061432,123.070992
	C110.885101,129.476990 111.735802,135.918930 110.194656,142.633911
	C105.223022,144.910446 100.925362,147.852631 95.542328,148.164993
	C90.907585,148.433929 87.874100,146.360352 85.782127,142.602844
	C83.666466,138.802795 84.608437,135.251541 87.072212,131.903946
	C89.754959,128.258820 93.982109,126.785309 97.542053,124.391937
	C100.393372,122.474960 103.847717,120.800011 101.317169,116.706322
	C98.624916,112.351051 95.355804,114.712944 92.387497,116.724335
	C82.861526,123.179420 72.382370,126.327148 60.853050,126.010895
	C54.705307,125.842270 49.047714,124.155304 43.954220,120.745415
	C40.741261,118.594482 38.502357,115.777641 39.250431,111.566498
	C39.968399,107.524857 42.973530,105.856415 46.540417,104.977455
	C53.476910,103.268150 60.405952,103.805550 67.329552,105.189377
	C69.440636,105.611320 71.587921,105.977280 73.732193,106.076965
	C76.516968,106.206421 78.776970,105.121864 79.032188,102.034134
	C79.278091,99.059013 77.526550,97.363029 74.644020,97.000137
	C68.024765,96.166824 61.553429,94.625137 55.128254,92.913498
	C40.786732,89.092957 29.490759,81.209869 22.702770,67.710388
	C20.037291,62.409466 19.200760,56.997314 23.289644,51.761856
	C26.111698,48.148468 29.384811,47.732079 32.807907,50.373272
	C36.356197,53.111065 39.729088,56.125393 42.894394,59.302055
	C58.920177,75.385300 78.369080,84.739655 100.445602,89.189934
	C107.468773,90.605698 114.406502,92.473434 119.508591,98.171364
	C122.124069,101.092300 123.934196,104.384201 124.811050,108.548088
z"/>
    <path fill="#FCFCFC" opacity="1.000000" stroke="none"
          d="
M191.285004,142.098450
	C188.942017,136.400330 190.212006,130.600616 190.088226,124.897484
	C189.857010,114.243515 188.557098,112.442055 177.934448,109.925392
	C177.622955,109.851593 177.452042,109.184486 177.147858,108.409058
	C180.974792,96.039146 190.393234,91.255623 201.805786,89.163483
	C219.298843,85.956688 235.034851,78.813927 249.340729,68.324966
	C254.078278,64.851433 257.915100,60.441143 262.234772,56.537086
	C263.716583,55.197842 265.112488,53.750671 266.680389,52.522282
	C269.654419,50.192307 272.759155,46.830109 276.783722,49.705212
	C280.804779,52.577785 282.808960,56.945786 281.464569,62.010212
	C278.009949,75.024185 269.036133,83.374451 257.442749,89.140800
	C248.567810,93.555038 238.816513,95.145523 229.136642,96.747643
	C225.914459,97.280952 222.837387,98.089432 223.229263,101.986809
	C223.657593,106.246956 227.171753,106.408348 230.477417,105.989197
	C236.562576,105.217613 242.522232,103.507149 248.768860,103.960983
	C251.445053,104.155418 254.095871,104.363739 256.633606,105.195549
	C259.758911,106.219933 262.381104,107.842468 262.979187,111.499840
	C263.590332,115.237083 262.005859,117.985153 259.132263,120.106857
	C251.416367,125.803886 242.657547,126.607300 233.457932,125.662178
	C225.311249,124.825218 218.031219,121.798340 211.183701,117.506630
	C209.914658,116.711243 208.716980,115.782646 207.390610,115.102158
	C204.840820,113.794006 202.505264,114.043388 200.915329,116.655556
	C199.314926,119.284935 200.083221,121.427422 202.615021,123.003761
	C205.721573,124.937935 208.935013,126.713959 211.945648,128.785904
	C218.637802,133.391525 219.375702,141.175446 213.743576,146.081650
	C210.410690,148.984955 206.590103,148.431732 202.850555,147.508652
	C198.785507,146.505203 195.161514,144.400742 191.285004,142.098450
z"/>
    <path fill="#9ABF33" opacity="1.000000" stroke="none"
          d="
M171.000854,153.156021
	C161.348511,157.683380 151.639648,158.943085 141.445816,157.525574
	C138.021957,157.049454 136.521881,155.534180 136.127060,152.273346
	C135.852875,150.008789 135.764786,147.413467 133.011169,146.511047
	C130.264160,145.610809 129.199448,147.832855 127.962593,149.568787
	C126.913872,151.040680 125.799103,151.501389 124.236824,150.234024
	C122.639130,148.937897 120.718620,148.405014 119.505844,150.428955
	C118.161102,152.673126 120.497635,153.680496 121.792198,154.734634
	C129.400345,160.929764 138.446442,162.663803 147.943466,163.067169
	C149.791016,163.145630 152.793304,161.893707 153.288513,163.936478
	C153.909561,166.498352 153.468338,170.516785 151.476395,171.827805
	C146.789734,174.912415 143.535080,179.365982 139.274750,182.773560
	C138.557419,183.347305 137.803268,184.494705 136.783829,183.661072
	C136.301132,183.266388 136.367050,182.180130 136.224640,181.399857
	C136.165741,181.077286 136.218948,180.735275 136.210022,180.402420
	C135.995941,172.410461 135.995667,172.410461 127.718521,172.329681
	C119.010193,172.244675 117.052490,170.316833 117.022507,161.824600
	C116.976639,148.834976 116.873749,135.845291 116.892036,122.855789
	C116.902466,115.447769 125.435112,110.353409 131.940399,113.930962
	C134.328705,115.244400 132.158691,117.235039 131.807907,118.712410
	C128.192307,133.939560 140.272385,147.271606 155.525543,144.729553
	C167.073746,142.804947 174.720428,130.781891 171.913879,119.143723
	C171.438477,117.172256 168.746933,114.666008 170.620499,113.476578
	C172.715866,112.146347 176.135803,112.073997 178.756210,112.589165
	C182.926773,113.409065 186.147903,116.035492 186.144608,120.783447
	C186.134445,135.437576 185.972687,150.091888 185.784973,164.745056
	C185.768661,166.018341 185.128632,167.283661 184.315521,170.229172
	C182.070480,164.583282 180.435074,160.200729 178.037506,156.222137
	C177.552124,155.416718 177.928741,154.621613 178.508194,153.953064
	C179.643051,152.643723 180.857727,151.213211 179.000687,149.712387
	C177.229263,148.280762 176.006485,149.845306 174.695908,150.856293
	C173.649689,151.663345 172.465698,152.291824 171.000854,153.156021
z"/>
    <path fill="#EFEFEF" opacity="1.000000" stroke="none"
          d="
M167.557922,126.451874
	C165.182999,136.277023 158.201782,141.454300 149.459641,140.217880
	C141.382767,139.075546 135.589401,132.076981 135.808105,123.726387
	C136.020813,115.604698 142.451401,108.969185 150.700348,108.359581
	C160.495087,107.635735 167.860580,115.334717 167.557922,126.451874
z"/>
    <path fill="#CC5F11" opacity="1.000000" stroke="none"
          d="
M179.817261,175.202438
	C179.393051,184.248367 175.692001,189.530441 169.711044,190.079041
	C163.426788,190.655457 158.101883,186.188354 157.189514,179.179337
	C156.539673,174.187210 157.365341,169.268158 158.713379,164.403656
	C159.343140,162.131119 160.905258,161.590729 162.750565,161.443237
	C164.767410,161.282043 165.088043,163.110931 165.444351,164.472809
	C166.454117,168.332382 167.122162,172.250565 167.034454,176.280533
	C166.990219,178.312347 167.193451,180.735962 169.925568,180.560059
	C172.435684,180.398422 171.970963,177.996262 172.042801,176.219604
	C172.219406,171.851501 171.225891,167.653793 170.282440,163.432556
	C169.903229,161.735901 168.160248,159.591599 171.292114,158.480988
	C174.347397,157.397522 174.438110,160.172714 175.372040,161.644119
	C177.909821,165.642456 178.942612,170.192276 179.817261,175.202438
z"/>
    <path fill="#B6B6B6" opacity="1.000000" stroke="none"
          d="
M129.754974,153.865479
	C130.235016,152.436569 130.844742,151.373428 131.569336,150.109985
	C133.133682,151.886887 133.893204,153.670792 132.717377,155.211945
	C131.977386,156.181854 130.743958,154.916779 129.754974,153.865479
z"/>
    <path fill="#91B231" opacity="1.000000" stroke="none"
          d="
M136.233963,214.283340
	C136.161392,212.216187 136.145691,210.563217 136.162628,208.910599
	C136.223145,203.004288 136.761078,202.451523 142.842194,203.062943
	C147.498077,203.531067 146.728699,207.138504 146.620621,210.229431
	C146.592285,211.040161 146.294220,211.848343 146.071091,212.643967
	C145.598206,214.329987 145.602203,216.804153 143.291473,216.677750
	C141.061584,216.555801 142.474854,213.887482 141.540894,212.651672
	C139.554520,212.724182 140.685471,220.763504 136.233963,214.283340
z"/>
    <path fill="#98BB33" opacity="1.000000" stroke="none"
          d="
M133.737900,209.075226
	C133.070160,209.923523 131.738251,210.350204 132.864182,211.205826
	C134.436981,212.401001 135.978149,213.401276 133.811661,215.299820
	C131.918030,216.959244 129.816238,217.729507 127.472809,216.128922
	C123.696205,213.549500 124.085060,205.762421 128.103882,203.572662
	C129.503174,202.810211 131.027695,202.717865 132.400101,203.497253
	C134.529907,204.706757 134.521484,206.672302 133.737900,209.075226
z"/>
    <path fill="#95B832" opacity="1.000000" stroke="none"
          d="
M118.010361,200.008667
	C119.449730,198.805893 120.412239,198.988525 120.866783,200.486710
	C121.304359,201.928955 120.662247,203.726761 123.036446,204.349548
	C124.420425,204.712570 123.532280,205.819565 122.776230,206.567276
	C119.775131,209.535233 117.912903,212.441345 123.124710,215.162476
	C124.728783,216.000000 124.085670,217.295456 122.824516,217.672791
	C120.732857,218.298615 118.422684,218.475754 116.995674,216.287582
	C115.435226,213.894806 117.092796,210.717346 115.942513,208.606430
	C114.536629,206.026459 114.108017,204.657166 116.906464,203.089096
	C117.525459,202.742249 117.519112,201.279419 118.010361,200.008667
z"/>
    <path fill="#91B231" opacity="1.000000" stroke="none"
          d="
M175.248337,205.522690
	C177.468109,201.554001 180.932343,202.936279 183.600281,203.527603
	C185.794083,204.013840 185.917465,206.890335 185.753571,209.089386
	C185.656097,210.397369 185.323410,211.696060 185.009491,212.977615
	C184.621887,214.559921 184.389862,216.787292 182.446487,216.722458
	C180.038132,216.642105 181.452438,213.994736 180.567764,212.701813
	C179.402664,212.953354 179.491989,214.105576 179.183365,214.942932
	C178.827347,215.908829 178.509354,216.933685 177.273529,216.841507
	C175.849701,216.735321 175.339050,215.548859 175.284393,214.380264
	C175.153381,211.578323 175.207214,208.767715 175.248337,205.522690
z"/>
    <path fill="#98BB33" opacity="1.000000" stroke="none"
          d="
M172.469635,215.614410
	C168.694656,218.100739 166.108368,216.921097 164.403671,213.555054
	C162.719742,210.230057 164.424850,204.652252 167.412109,203.428635
	C169.392899,202.617279 172.113327,202.575470 172.552414,204.768143
	C173.236145,208.182632 172.753281,211.830719 172.469635,215.614410
z"/>
    <path fill="#95B832" opacity="1.000000" stroke="none"
          d="
M155.161591,209.385742
	C151.456360,204.776306 157.033463,202.789398 157.455475,199.568451
	C157.477417,199.401001 158.447906,199.101517 158.756332,199.269150
	C160.900360,200.434341 159.288116,204.126236 162.559143,204.858047
	C163.212097,205.004120 161.845810,206.244965 161.167923,206.907639
	C158.370468,209.642334 158.639954,212.712830 161.892868,215.016495
	C162.479889,215.432190 163.046326,215.765137 162.938004,216.454483
	C162.795181,217.363312 162.029388,217.707916 161.173798,217.932632
	C156.935837,219.045792 155.135193,216.622879 155.161591,209.385742
z"/>
    <path fill="#202020" opacity="1.000000" stroke="none"
          d="
M158.688660,117.592896
	C159.472794,118.270798 159.994858,118.941223 160.328278,119.695084
	C162.679871,125.011864 160.971634,130.505875 156.213669,133.050995
	C151.642395,135.496262 145.944427,133.765854 143.267059,129.119263
	C140.567703,124.434509 142.121399,119.379585 147.634552,115.903038
	C149.533859,114.938599 150.697128,115.146080 151.545685,116.876274
	C154.146500,122.179283 154.173492,122.166039 158.688660,117.592896
z"/>
    <path fill="#DADADA" opacity="1.000000" stroke="none"
          d="
M158.956299,117.233269
	C158.729828,118.084465 158.246506,118.575111 158.143906,119.135468
	C157.711075,121.499077 156.621674,123.324730 153.989166,122.945839
	C151.383835,122.570862 149.847900,120.794960 150.554443,118.066437
	C151.065811,116.091522 150.370560,115.748116 148.347382,115.854111
	C152.025009,112.082703 155.514145,113.864441 158.956299,117.233269
z"/>
</svg>